<svg id="visual" viewBox="0 0 960 540" width="960" height="540" xmlns="http://www.w3.org/2000/svg" xmlns:xlink="http://www.w3.org/1999/xlink" version="1.1"><path d="M0 333L17.8 330.7C35.7 328.3 71.3 323.7 106.8 331.5C142.3 339.3 177.7 359.7 213.2 371.7C248.7 383.7 284.3 387.3 320 366C355.7 344.7 391.3 298.3 426.8 302.5C462.3 306.7 497.7 361.3 533.2 387C568.7 412.7 604.3 409.3 640 397C675.7 384.7 711.3 363.3 746.8 358C782.3 352.7 817.7 363.3 853.2 363.7C888.7 364 924.3 354 942.2 349L960 344L960 0L942.2 0C924.3 0 888.7 0 853.2 0C817.7 0 782.3 0 746.8 0C711.3 0 675.7 0 640 0C604.3 0 568.7 0 533.2 0C497.7 0 462.3 0 426.8 0C391.3 0 355.7 0 320 0C284.3 0 248.7 0 213.2 0C177.7 0 142.3 0 106.8 0C71.3 0 35.7 0 17.8 0L0 0Z" fill="#4059ad"></path><path d="M0 331L17.8 324.5C35.7 318 71.3 305 106.8 296.7C142.3 288.3 177.7 284.7 213.2 298.7C248.7 312.7 284.3 344.3 320 350.5C355.7 356.7 391.3 337.3 426.8 313.2C462.3 289 497.7 260 533.2 257.7C568.7 255.3 604.3 279.7 640 304.3C675.7 329 711.3 354 746.8 363.5C782.3 373 817.7 367 853.2 352.7C888.7 338.3 924.3 315.7 942.2 304.3L960 293L960 0L942.2 0C924.3 0 888.7 0 853.2 0C817.7 0 782.3 0 746.8 0C711.3 0 675.7 0 640 0C604.3 0 568.7 0 533.2 0C497.7 0 462.3 0 426.8 0C391.3 0 355.7 0 320 0C284.3 0 248.7 0 213.2 0C177.7 0 142.3 0 106.8 0C71.3 0 35.7 0 17.8 0L0 0Z" fill="#5d6cb7"></path><path d="M0 314L17.8 304C35.7 294 71.3 274 106.8 269.2C142.3 264.3 177.7 274.7 213.2 272C248.7 269.3 284.3 253.7 320 243C355.7 232.3 391.3 226.7 426.8 242.7C462.3 258.7 497.7 296.3 533.2 315C568.7 333.7 604.3 333.3 640 327.3C675.7 321.3 711.3 309.7 746.8 305.5C782.3 301.3 817.7 304.7 853.2 294.7C888.7 284.7 924.3 261.3 942.2 249.7L960 238L960 0L942.2 0C924.3 0 888.7 0 853.2 0C817.7 0 782.3 0 746.8 0C711.3 0 675.7 0 640 0C604.3 0 568.7 0 533.2 0C497.7 0 462.3 0 426.8 0C391.3 0 355.7 0 320 0C284.3 0 248.7 0 213.2 0C177.7 0 142.3 0 106.8 0C71.3 0 35.7 0 17.8 0L0 0Z" fill="#767fc2"></path><path d="M0 243L17.8 244.3C35.7 245.7 71.3 248.3 106.8 248.5C142.3 248.7 177.7 246.3 213.2 241.5C248.7 236.7 284.3 229.3 320 237C355.7 244.7 391.3 267.3 426.8 275.3C462.3 283.3 497.7 276.7 533.2 269.7C568.7 262.7 604.3 255.3 640 245.5C675.7 235.7 711.3 223.3 746.8 216.7C782.3 210 817.7 209 853.2 221.5C888.7 234 924.3 260 942.2 273L960 286L960 0L942.2 0C924.3 0 888.7 0 853.2 0C817.7 0 782.3 0 746.8 0C711.3 0 675.7 0 640 0C604.3 0 568.7 0 533.2 0C497.7 0 462.3 0 426.8 0C391.3 0 355.7 0 320 0C284.3 0 248.7 0 213.2 0C177.7 0 142.3 0 106.8 0C71.3 0 35.7 0 17.8 0L0 0Z" fill="#8e93cc"></path><path d="M0 170L17.8 164C35.7 158 71.3 146 106.8 153.2C142.3 160.3 177.7 186.7 213.2 192.5C248.7 198.3 284.3 183.7 320 177.3C355.7 171 391.3 173 426.8 177.3C462.3 181.7 497.7 188.3 533.2 190.8C568.7 193.3 604.3 191.7 640 200.8C675.7 210 711.3 230 746.8 230.5C782.3 231 817.7 212 853.2 208.5C888.7 205 924.3 217 942.2 223L960 229L960 0L942.2 0C924.3 0 888.7 0 853.2 0C817.7 0 782.3 0 746.8 0C711.3 0 675.7 0 640 0C604.3 0 568.7 0 533.2 0C497.7 0 462.3 0 426.8 0C391.3 0 355.7 0 320 0C284.3 0 248.7 0 213.2 0C177.7 0 142.3 0 106.8 0C71.3 0 35.7 0 17.8 0L0 0Z" fill="#a5a8d6"></path><path d="M0 190L17.8 179.7C35.7 169.3 71.3 148.7 106.8 147.5C142.3 146.3 177.7 164.7 213.2 176.5C248.7 188.3 284.3 193.7 320 187.3C355.7 181 391.3 163 426.8 148.5C462.3 134 497.7 123 533.2 121.7C568.7 120.3 604.3 128.7 640 126.5C675.7 124.3 711.3 111.7 746.8 117C782.3 122.3 817.7 145.7 853.2 157.5C888.7 169.3 924.3 169.7 942.2 169.8L960 170L960 0L942.2 0C924.3 0 888.7 0 853.2 0C817.7 0 782.3 0 746.8 0C711.3 0 675.7 0 640 0C604.3 0 568.7 0 533.2 0C497.7 0 462.3 0 426.8 0C391.3 0 355.7 0 320 0C284.3 0 248.7 0 213.2 0C177.7 0 142.3 0 106.8 0C71.3 0 35.7 0 17.8 0L0 0Z" fill="#bcbde0"></path><path d="M0 71L17.8 70.2C35.7 69.3 71.3 67.7 106.8 69.3C142.3 71 177.7 76 213.2 78.8C248.7 81.7 284.3 82.3 320 84.2C355.7 86 391.3 89 426.8 102C462.3 115 497.7 138 533.2 138.8C568.7 139.7 604.3 118.3 640 102.8C675.7 87.3 711.3 77.7 746.8 77C782.3 76.3 817.7 84.7 853.2 93C888.7 101.3 924.3 109.7 942.2 113.8L960 118L960 0L942.2 0C924.3 0 888.7 0 853.2 0C817.7 0 782.3 0 746.8 0C711.3 0 675.7 0 640 0C604.3 0 568.7 0 533.2 0C497.7 0 462.3 0 426.8 0C391.3 0 355.7 0 320 0C284.3 0 248.7 0 213.2 0C177.7 0 142.3 0 106.8 0C71.3 0 35.7 0 17.8 0L0 0Z" fill="#d2d3eb"></path><path d="M0 60L17.8 62.2C35.7 64.3 71.3 68.7 106.8 71.2C142.3 73.7 177.7 74.3 213.2 80.3C248.7 86.3 284.3 97.7 320 92.7C355.7 87.7 391.3 66.3 426.8 59.5C462.3 52.7 497.7 60.3 533.2 72.5C568.7 84.7 604.3 101.3 640 109.8C675.7 118.3 711.3 118.7 746.8 111.3C782.3 104 817.7 89 853.2 88C888.7 87 924.3 100 942.2 106.5L960 113L960 0L942.2 0C924.3 0 888.7 0 853.2 0C817.7 0 782.3 0 746.8 0C711.3 0 675.7 0 640 0C604.3 0 568.7 0 533.2 0C497.7 0 462.3 0 426.8 0C391.3 0 355.7 0 320 0C284.3 0 248.7 0 213.2 0C177.7 0 142.3 0 106.8 0C71.3 0 35.7 0 17.8 0L0 0Z" fill="#e9e9f5"></path><path d="M0 4L17.8 13.3C35.7 22.7 71.3 41.3 106.8 45.8C142.3 50.3 177.7 40.7 213.2 38.5C248.7 36.3 284.3 41.7 320 45.2C355.7 48.7 391.3 50.3 426.8 51.8C462.3 53.3 497.7 54.7 533.2 48.8C568.7 43 604.3 30 640 23.2C675.7 16.3 711.3 15.7 746.8 23.3C782.3 31 817.7 47 853.2 48C888.7 49 924.3 35 942.2 28L960 21L960 0L942.2 0C924.3 0 888.7 0 853.2 0C817.7 0 782.3 0 746.8 0C711.3 0 675.7 0 640 0C604.3 0 568.7 0 533.2 0C497.7 0 462.3 0 426.8 0C391.3 0 355.7 0 320 0C284.3 0 248.7 0 213.2 0C177.7 0 142.3 0 106.8 0C71.3 0 35.7 0 17.8 0L0 0Z" fill="#ffffff"></path></svg>