<svg id="visual" viewBox="0 0 960 540" width="960" height="540" xmlns="http://www.w3.org/2000/svg" xmlns:xlink="http://www.w3.org/1999/xlink" version="1.1"><path d="M0 205L17.8 207.3C35.7 209.7 71.3 214.3 106.8 206.5C142.3 198.7 177.7 178.3 213.2 166.3C248.7 154.3 284.3 150.7 320 172C355.7 193.3 391.3 239.7 426.8 235.5C462.3 231.3 497.7 176.7 533.2 151C568.7 125.3 604.3 128.7 640 141C675.7 153.3 711.3 174.7 746.8 180C782.3 185.3 817.7 174.7 853.2 174.3C888.7 174 924.3 184 942.2 189L960 194L960 541L942.2 541C924.3 541 888.7 541 853.2 541C817.7 541 782.3 541 746.8 541C711.3 541 675.7 541 640 541C604.3 541 568.7 541 533.2 541C497.7 541 462.3 541 426.8 541C391.3 541 355.7 541 320 541C284.3 541 248.7 541 213.2 541C177.7 541 142.3 541 106.8 541C71.3 541 35.7 541 17.8 541L0 541Z" fill="#ffba49"></path><path d="M0 207L17.8 213.5C35.7 220 71.3 233 106.8 241.3C142.3 249.7 177.7 253.3 213.2 239.3C248.7 225.3 284.3 193.7 320 187.5C355.7 181.3 391.3 200.7 426.8 224.8C462.3 249 497.7 278 533.2 280.3C568.7 282.7 604.3 258.3 640 233.7C675.7 209 711.3 184 746.8 174.5C782.3 165 817.7 171 853.2 185.3C888.7 199.7 924.3 222.3 942.2 233.7L960 245L960 541L942.2 541C924.3 541 888.7 541 853.2 541C817.7 541 782.3 541 746.8 541C711.3 541 675.7 541 640 541C604.3 541 568.7 541 533.2 541C497.7 541 462.3 541 426.8 541C391.3 541 355.7 541 320 541C284.3 541 248.7 541 213.2 541C177.7 541 142.3 541 106.8 541C71.3 541 35.7 541 17.8 541L0 541Z" fill="#ffc361"></path><path d="M0 224L17.8 234C35.7 244 71.3 264 106.8 268.8C142.3 273.7 177.7 263.3 213.2 266C248.7 268.7 284.3 284.3 320 295C355.7 305.7 391.3 311.3 426.8 295.3C462.3 279.3 497.7 241.7 533.2 223C568.7 204.3 604.3 204.7 640 210.7C675.7 216.7 711.3 228.3 746.8 232.5C782.3 236.7 817.7 233.3 853.2 243.3C888.7 253.3 924.3 276.7 942.2 288.3L960 300L960 541L942.2 541C924.3 541 888.7 541 853.2 541C817.7 541 782.3 541 746.8 541C711.3 541 675.7 541 640 541C604.3 541 568.7 541 533.2 541C497.7 541 462.3 541 426.8 541C391.3 541 355.7 541 320 541C284.3 541 248.7 541 213.2 541C177.7 541 142.3 541 106.8 541C71.3 541 35.7 541 17.8 541L0 541Z" fill="#ffcb78"></path><path d="M0 295L17.8 293.7C35.7 292.3 71.3 289.7 106.8 289.5C142.3 289.3 177.7 291.7 213.2 296.5C248.7 301.3 284.3 308.7 320 301C355.7 293.3 391.3 270.7 426.8 262.7C462.3 254.7 497.7 261.3 533.2 268.3C568.7 275.3 604.3 282.7 640 292.5C675.7 302.3 711.3 314.7 746.8 321.3C782.3 328 817.7 329 853.2 316.5C888.7 304 924.3 278 942.2 265L960 252L960 541L942.2 541C924.3 541 888.7 541 853.2 541C817.7 541 782.3 541 746.8 541C711.3 541 675.7 541 640 541C604.3 541 568.7 541 533.2 541C497.7 541 462.3 541 426.8 541C391.3 541 355.7 541 320 541C284.3 541 248.7 541 213.2 541C177.7 541 142.3 541 106.8 541C71.3 541 35.7 541 17.8 541L0 541Z" fill="#ffd48f"></path><path d="M0 368L17.8 374C35.7 380 71.3 392 106.8 384.8C142.3 377.7 177.7 351.3 213.2 345.5C248.7 339.7 284.3 354.3 320 360.7C355.7 367 391.3 365 426.8 360.7C462.3 356.3 497.7 349.7 533.2 347.2C568.7 344.7 604.3 346.3 640 337.2C675.7 328 711.3 308 746.8 307.5C782.3 307 817.7 326 853.2 329.5C888.7 333 924.3 321 942.2 315L960 309L960 541L942.2 541C924.3 541 888.7 541 853.2 541C817.7 541 782.3 541 746.8 541C711.3 541 675.7 541 640 541C604.3 541 568.7 541 533.2 541C497.7 541 462.3 541 426.8 541C391.3 541 355.7 541 320 541C284.3 541 248.7 541 213.2 541C177.7 541 142.3 541 106.8 541C71.3 541 35.7 541 17.8 541L0 541Z" fill="#ffdca5"></path><path d="M0 348L17.8 358.3C35.7 368.7 71.3 389.3 106.8 390.5C142.3 391.7 177.7 373.3 213.2 361.5C248.7 349.7 284.3 344.3 320 350.7C355.7 357 391.3 375 426.8 389.5C462.3 404 497.7 415 533.2 416.3C568.7 417.7 604.3 409.3 640 411.5C675.7 413.7 711.3 426.3 746.8 421C782.3 415.7 817.7 392.3 853.2 380.5C888.7 368.7 924.3 368.3 942.2 368.2L960 368L960 541L942.2 541C924.3 541 888.7 541 853.2 541C817.7 541 782.3 541 746.8 541C711.3 541 675.7 541 640 541C604.3 541 568.7 541 533.2 541C497.7 541 462.3 541 426.8 541C391.3 541 355.7 541 320 541C284.3 541 248.7 541 213.2 541C177.7 541 142.3 541 106.8 541C71.3 541 35.7 541 17.8 541L0 541Z" fill="#ffe5bb"></path><path d="M0 467L17.8 467.8C35.7 468.7 71.3 470.3 106.8 468.7C142.3 467 177.7 462 213.2 459.2C248.7 456.3 284.3 455.7 320 453.8C355.7 452 391.3 449 426.8 436C462.3 423 497.7 400 533.2 399.2C568.7 398.3 604.3 419.7 640 435.2C675.7 450.7 711.3 460.3 746.8 461C782.3 461.7 817.7 453.3 853.2 445C888.7 436.7 924.3 428.3 942.2 424.2L960 420L960 541L942.2 541C924.3 541 888.7 541 853.2 541C817.7 541 782.3 541 746.8 541C711.3 541 675.7 541 640 541C604.3 541 568.7 541 533.2 541C497.7 541 462.3 541 426.8 541C391.3 541 355.7 541 320 541C284.3 541 248.7 541 213.2 541C177.7 541 142.3 541 106.8 541C71.3 541 35.7 541 17.8 541L0 541Z" fill="#ffedd2"></path><path d="M0 478L17.8 475.8C35.7 473.7 71.3 469.3 106.8 466.8C142.3 464.3 177.7 463.7 213.2 457.7C248.7 451.7 284.3 440.3 320 445.3C355.7 450.3 391.3 471.7 426.8 478.5C462.3 485.3 497.7 477.7 533.2 465.5C568.7 453.3 604.3 436.7 640 428.2C675.7 419.7 711.3 419.3 746.8 426.7C782.3 434 817.7 449 853.2 450C888.7 451 924.3 438 942.2 431.5L960 425L960 541L942.2 541C924.3 541 888.7 541 853.2 541C817.7 541 782.3 541 746.8 541C711.3 541 675.7 541 640 541C604.3 541 568.7 541 533.2 541C497.7 541 462.3 541 426.8 541C391.3 541 355.7 541 320 541C284.3 541 248.7 541 213.2 541C177.7 541 142.3 541 106.8 541C71.3 541 35.7 541 17.8 541L0 541Z" fill="#fff6e8"></path><path d="M0 534L17.8 524.7C35.7 515.3 71.3 496.7 106.8 492.2C142.3 487.7 177.7 497.3 213.2 499.5C248.7 501.7 284.3 496.3 320 492.8C355.7 489.3 391.3 487.7 426.8 486.2C462.3 484.7 497.7 483.3 533.2 489.2C568.7 495 604.3 508 640 514.8C675.7 521.7 711.3 522.3 746.8 514.7C782.3 507 817.7 491 853.2 490C888.7 489 924.3 503 942.2 510L960 517L960 541L942.2 541C924.3 541 888.7 541 853.2 541C817.7 541 782.3 541 746.8 541C711.3 541 675.7 541 640 541C604.3 541 568.7 541 533.2 541C497.7 541 462.3 541 426.8 541C391.3 541 355.7 541 320 541C284.3 541 248.7 541 213.2 541C177.7 541 142.3 541 106.8 541C71.3 541 35.7 541 17.8 541L0 541Z" fill="#ffffff"></path></svg>