<svg id="visual" viewBox="0 0 960 540" width="960" height="540" xmlns="http://www.w3.org/2000/svg" xmlns:xlink="http://www.w3.org/1999/xlink" version="1.1"><path d="M0 180L32 197.3C64 214.7 128 249.3 192 280.3C256 311.3 320 338.7 384 350.5C448 362.3 512 358.7 576 354C640 349.3 704 343.7 768 319.5C832 295.3 896 252.7 928 231.3L960 210L960 541L928 541C896 541 832 541 768 541C704 541 640 541 576 541C512 541 448 541 384 541C320 541 256 541 192 541C128 541 64 541 32 541L0 541Z" fill="#FFBA49" stroke-linecap="round" stroke-linejoin="miter"></path></svg>